# xmcd
#
# Track frame offsets: 
#        150
#        20759
#        39935
#        66070
#        79793
#        96330
#        121009
#        137755
#        163044
#        185434
#
# Disc length: 2877 seconds
#
# Revision: 0
# Processed by: cddbd v1.5.2PL0 Copyright (c) Steve Scherf et al.
# Submitted via: ExactAudioCopy v0.99pb5
#
DISCID=7d0b3b0a
DTITLE=Joanna Pilarska and Na Drodze - Tam gdzie zaczyna siê moj swiat
DYEAR=2008
DGENRE=Ballad
TTITLE0=Jest Taki_Swiat
TTITLE1=Stara Piesn
TTITLE2=Za Ptaki_Bez_Gniazd
TTITLE3=Piosenka Dla Tych,Którzy Siê Roztaja
TTITLE4=Piosenka Dla Kawy
TTITLE5=Tam - Gdzie_Zaczyna_Sie_Moj_Swiat
TTITLE6=Piosenka O Mlodym Joe Boo
TTITLE7=Mruczanka Dla Szpileczki
TTITLE8=Na Drodze Do Nikad
TTITLE9=Ja I Bobby
EXTD=
EXTT0=
EXTT1=
EXTT2=
EXTT3=
EXTT4=
EXTT5=
EXTT6=
EXTT7=
EXTT8=
EXTT9=
PLAYORDER=
